Coordinates
version=1
nRows=22
nColumns=32
inDegrees=yes

Units are S.I. units (second, meters, Newtons, ...)
If the header above contains a line with 'inDegrees', this indicates whether rotational values are in degrees (yes) or radians (no).

endheader
time	pelvis_tilt	pelvis_list	pelvis_rotation	pelvis_tx	pelvis_ty	pelvis_tz	hip_flexion_r	hip_adduction_r	hip_rotation_r	knee_angle_r	knee_adduction_r	med_cond_adduction_r	lat_cond_adduction_r	patella_r_constrained_knee_angle	ankle_angle_r	subtalar_angle_r	mtp_angle_r	hip_flexion_l	hip_adduction_l	hip_rotation_l	knee_angle_l	knee_adduction_l	med_cond_adduction_l	lat_cond_adduction_l	patella_l_constrained_knee_angle	ankle_angle_l	subtalar_angle_l	mtp_angle_l	lumbar_extension	lumbar_bending	lumbar_rotation
      0.17500000	      0.24490203	      8.01062482	      0.66135705	     -0.50634421	      0.90430813	      0.24109100	     29.63141561	    -17.98066207	    -22.13029743	    -14.33599687	      9.77159131	      0.00000000	      0.00000000	     -0.25021035	     -3.00918189	     19.38206408	     -0.00000000	    -29.82866924	      2.89684276	    -18.69772019	      6.62430153	      9.52231331	     -0.00000000	     -0.00000000	      0.11561587	    -12.44151759	     16.17685639	     -0.00000000	    -17.68759334	     -7.23811837	      4.21491638
      0.18000000	      0.17282668	      8.30361697	      0.66373045	     -0.49831853	      0.90358904	      0.24163006	     30.16203868	    -18.51313670	    -21.99980503	    -16.00183288	      9.76044917	      0.00000000	     -0.00000000	     -0.27928467	     -3.08561422	     19.39116823	     -0.00000000	    -29.83040921	      3.03928896	    -18.78267357	      5.87224376	      9.44889556	     -0.00000000	     -0.00000000	      0.10248999	    -13.11082901	     16.21016210	      0.00000000	    -17.49918424	     -7.56844840	      3.79848791
      0.18500000	      0.16958609	      8.54549631	      0.66051220	     -0.49025135	      0.90308746	      0.24221452	     30.55218430	    -18.98659223	    -21.89536807	    -17.57444104	      9.74794367	     -0.00000000	     -0.00000000	     -0.30673186	     -3.26822760	     19.39460694	      0.00000000	    -29.83118656	      3.11746363	    -18.96714465	      4.98226485	      9.34846816	     -0.00000000	     -0.00000000	      0.08695693	    -13.80611560	     16.30367579	     -0.00000000	    -17.40682172	     -7.68177153	      3.87242583
      0.19000000	      0.15052387	      8.82064781	      0.67356319	     -0.48214698	      0.90263435	      0.24274874	     30.96273289	    -19.52522610	    -21.81119126	    -19.18196149	      9.73493964	      0.00000000	      0.00000000	     -0.33478838	     -3.52536545	     19.39774154	     -0.00000000	    -29.83033887	      3.25616787	    -18.91183417	      4.20604009	      9.19673597	      0.00000000	      0.00000000	      0.07340925	    -14.62451958	     16.11817976	     -0.00000000	    -17.27585665	     -7.86003979	      3.80360561
      0.19500000	      0.28338293	      9.07683521	      0.63976709	     -0.47408058	      0.90257277	      0.24339256	     31.14057749	    -20.01435378	    -21.69221568	    -20.64660077	      9.72334930	      0.00000000	      0.00000000	     -0.36035116	     -3.87014450	     19.39747309	     -0.00000000	    -29.82979168	      3.37438812	    -19.09731140	      3.11767059	      8.97104969	     -0.00000000	     -0.00000000	      0.05441362	    -15.41123937	     16.11875037	      0.00000000	    -17.34038750	     -8.09624058	      3.54515824
      0.20000000	      0.61139358	      9.03003035	      0.83551323	     -0.46599783	      0.90329436	      0.24355716	     30.72468529	    -20.29770079	    -21.98050442	    -21.65806409	      9.71099136	      0.00000000	      0.00000000	     -0.37800453	     -4.42351622	     19.38081374	      0.00000000	    -29.82913162	      3.08938870	    -19.48605781	      1.65424680	      8.61842961	      0.00000000	      0.00000000	      0.02887205	    -16.12788830	     16.44482216	     -0.00000000	    -17.66834028	     -7.95926993	      2.71985712
      0.20500000	      0.95178477	      9.14912757	      0.94757626	     -0.45794088	      0.90401385	      0.24379718	     30.42530978	    -20.75104572	    -22.14435543	    -22.84902024	      9.70246400	      0.00000000	      0.00000000	     -0.39879063	     -4.90616655	     19.37674347	      0.00000000	    -29.82588733	      3.08946467	    -19.70792269	      0.28478704	      8.07130628	     -0.00000000	     -0.00000000	      0.00497047	    -16.99943772	     16.57675440	      0.00000000	    -18.01066581	     -7.83325760	      2.60261654
      0.21000000	      1.60134465	      8.74743731	      1.29962539	     -0.44994026	      0.90580737	      0.24363024	     29.23293045	    -20.71462747	    -22.84732763	    -23.32922028	      9.69471646	     -0.00000000	     -0.00000000	     -0.40717171	     -5.64853815	     19.34679277	      0.00000000	    -29.82535840	      2.38049518	    -20.45215124	     -1.74938092	      7.42685276	     -0.00000000	     -0.00000000	     -0.03053246	    -17.66488423	     17.17665015	     -0.00000000	    -18.76195757	     -7.13439333	      1.79660504
      0.21500000	      2.16098874	      8.78860266	      1.52211447	     -0.44206452	      0.90720096	      0.24346836	     28.52192242	    -21.17890105	    -23.24193595	    -24.35845057	      9.69619452	     -0.00000000	     -0.00000000	     -0.42513516	     -6.17149752	     19.35599508	      0.00000000	    -29.81792607	      2.34638286	    -20.69080128	     -3.38409116	      6.50348598	      0.00000000	      0.00000000	     -0.05906353	    -18.55892355	     17.35931121	      0.00000000	    -19.38796248	     -6.94659820	      1.10040081
      0.22000000	      2.89417540	      8.53573177	      1.84357978	     -0.43418228	      0.90915465	      0.24315056	     27.31994226	    -21.32041765	    -23.89235524	    -24.99406053	      9.69533100	     -0.00000000	     -0.00000000	     -0.43622865	     -6.73081288	     19.34295760	     -0.00000000	    -29.81003496	      1.92282816	    -21.25456024	     -5.35954033	      5.50260088	      0.00000000	      0.00000000	     -0.09354163	    -19.47210049	     17.71683243	     -0.00000000	    -20.21883181	     -6.39419051	      0.26250913
      0.22500000	      3.73963509	      8.16725436	      2.24043808	     -0.42639337	      0.91139082	      0.24269546	     25.87084860	    -21.34344149	    -24.68518935	    -25.49783547	      9.69854599	      0.00000000	      0.00000000	     -0.44502118	     -7.29378114	     19.33175419	      0.00000000	    -29.79831178	      1.32572567	    -21.90515726	     -7.50269277	      4.40451411	      0.00000000	      0.00000000	     -0.13094669	    -20.40030440	     18.03995871	     -0.00000000	    -21.16944016	     -5.66640259	     -0.68620040
      0.23000000	      4.72215490	      7.22259121	      2.57882748	     -0.41854474	      0.91392163	      0.24264928	     23.98163140	    -20.53772809	    -25.57337126	    -25.44332269	      9.68616864	     -0.00000000	     -0.00000000	     -0.44406975	     -7.87318823	     19.27861980	     -0.00000000	    -29.78849529	     -0.08195645	    -23.27843802	    -10.09988747	      3.56589683	     -0.00000000	      0.00000000	     -0.17627629	    -21.24095058	     18.38407473	      0.00000000	    -22.22756507	     -4.21349743	     -1.00426554
      0.23500000	      5.74607520	      6.25434353	      3.02015076	     -0.41076323	      0.91650598	      0.24235358	     22.00590847	    -19.69542840	    -26.51457985	    -25.32389665	      9.67982681	      0.00000000	      0.00000000	     -0.44198538	     -8.41134062	     19.22279844	     -0.00000000	    -29.77257524	     -1.54482430	    -24.53364381	    -12.69249441	      2.58880790	     -0.00000000	     -0.00000000	     -0.22152582	    -22.16436350	     18.60377279	      0.00000000	    -23.30489727	     -2.76972248	     -1.67263340
      0.24000000	      6.74068445	      5.22324648	      3.27358180	     -0.40296262	      0.91881174	      0.24251397	     20.18745890	    -18.62666251	    -27.16387794	    -25.20993472	      9.67048273	     -0.00000000	     -0.00000000	     -0.43999637	     -8.79884974	     19.15058176	     -0.00000000	    -29.74824518	     -3.07859916	    -26.07905177	    -15.29255829	      1.65230999	      0.00000000	      0.00000000	     -0.26690549	    -23.20344507	     18.76541701	      0.00000000	    -24.30084251	     -1.39248539	     -2.18808293
      0.24500000	      7.80641192	      3.91688000	      3.72108155	     -0.39510690	      0.92120533	      0.24236522	     18.11612635	    -17.22170549	    -28.02236624	    -24.82920217	      9.65569564	      0.00000000	      0.00000000	     -0.43335133	     -9.15665910	     19.04439694	      0.00000000	    -29.71978320	     -5.07173608	    -27.75292633	    -18.05033423	      0.68159882	     -0.00000000	     -0.00000000	     -0.31503776	    -24.24548217	     18.86304716	      0.00000000	    -25.32680440	      0.30965251	     -2.95394301
      0.25000000	      8.78796948	      2.54946067	      3.95769037	     -0.38720309	      0.92322532	      0.24273962	     16.29138313	    -15.58358423	    -28.50210345	    -24.43342832	      9.63401095	     -0.00000000	     -0.00000000	     -0.42644377	     -9.37888310	     18.89186445	      0.00000000	    -29.67547529	     -7.12490500	    -29.67725936	    -20.75787324	     -0.23790477	      0.00000000	      0.00000000	     -0.36229323	    -25.40057889	     18.93711223	     -0.00000000	    -26.19922099	      2.12394696	     -2.78945030
      0.25500000	      9.70000284	      1.20935937	      4.11048728	     -0.37926798	      0.92494338	      0.24331588	     14.65305355	    -13.92385479	    -28.80113743	    -24.11942672	      9.60984031	     -0.00000000	      0.00000000	     -0.42096341	     -9.44139489	     18.72219873	     -0.00000000	    -29.60290433	     -9.14676996	    -31.69996604	    -23.38898419	     -1.23376646	     -0.00000000	     -0.00000000	     -0.40821478	    -26.65724554	     18.96107802	     -0.00000000	    -26.97751145	      3.83033950	     -2.49506048
      0.26000000	     10.58866179	     -0.45698034	      4.38516012	     -0.37124914	      0.92650533	      0.24382221	     12.91627553	    -11.79408387	    -29.09221343	    -23.42258447	      9.57315130	     -0.00000000	     -0.00000000	     -0.40880122	     -9.63466147	     18.41663590	     -0.00000000	    -29.48809176	    -11.70938239	    -33.89533908	    -26.20660406	     -2.18779242	     -0.00000000	     -0.00000000	     -0.45739153	    -27.77103757	     18.99088769	      0.00000000	    -27.69449855	      5.67345276	     -2.92723737
      0.26500000	     11.39311369	     -1.98954265	      4.73437720	     -0.36332189	      0.92781234	      0.24422285	     11.33549526	     -9.82902613	    -29.37970892	    -22.81591315	      9.54149661	     -0.00000000	     -0.00000000	     -0.39821281	     -9.72250658	     18.07758933	     -0.00000000	    -29.25278163	    -14.16245617	    -35.86768120	    -28.95307793	     -3.28776207	      0.00000000	     -0.00000000	     -0.50532654	    -28.91590949	     18.97536769	      0.00000000	    -28.31633777	      7.43153247	     -3.19657463
      0.27000000	     11.97271316	     -3.31903800	      5.05381932	     -0.35549739	      0.92869165	      0.24464334	     10.12821560	     -8.12755089	    -29.54464565	    -22.42557368	      9.51480904	      0.00000000	      0.00000000	     -0.39140010	     -9.61984262	     17.74681581	      0.00000000	    -28.73516371	    -16.34048947	    -37.48923190	    -31.63879215	     -4.49784237	      0.00000000	      0.00000000	     -0.55220109	    -29.82228217	     18.90954941	      0.00000000	    -28.67912974	      8.97463215	     -3.31741358
      0.27500000	     12.23212949	     -4.21680634	      5.55686487	     -0.34802243	      0.92917066	      0.24460072	      9.36215099	     -7.08110691	    -29.92699556	    -22.40706667	      9.50626279	      0.00000000	      0.00000000	     -0.39107709	     -9.34211708	     17.56096076	     -0.00000000	    -27.57859082	    -18.01812460	    -38.41132961	    -34.36973766	     -6.02525307	      0.00000000	      0.00000000	     -0.59986509	    -30.49160932	     18.79950225	      0.00000000	    -28.72964180	     10.05934441	     -4.00417142
      0.28000000	     12.19448632	     -5.15899137	      6.15716343	     -0.34070052	      0.92911040	      0.24463174	      8.94475826	     -5.99530888	    -30.37238658	    -22.38011377	      9.48408822	      0.00000000	      0.00000000	     -0.39060667	     -9.01900403	     17.33218221	     -0.00000000	    -25.93121151	    -19.86199926	    -38.92611743	    -37.32688926	     -7.43353194	      0.00000000	      0.00000000	     -0.65147712	    -30.86500280	     18.59468494	     -0.00000000	    -28.42761364	     11.40997002	     -3.96867281
